<svg id="Message" xmlns="http://www.w3.org/2000/svg" width="97.898" height="60.195" viewBox="0 0 97.898 60.195">
  <g id="Group_38766" data-name="Group 38766" transform="translate(0 0)">
    <g id="Group_38762" data-name="Group 38762">
      <g id="Group_38759" data-name="Group 38759" transform="translate(0.295 0.271)">
        <path id="Path_10551" data-name="Path 10551" d="M712.707,98.46H624.5a4.588,4.588,0,0,0-4.587,4.589v40.186a4.588,4.588,0,0,0,4.587,4.587H661.5l7.86,10.08,6.551-10.08h36.794a4.588,4.588,0,0,0,4.587-4.587V103.049A4.588,4.588,0,0,0,712.707,98.46Z" transform="translate(-619.909 -98.46)" fill="#fff"/>
      </g>
      <g id="Group_38761" data-name="Group 38761">
        <g id="Group_38760" data-name="Group 38760">
          <path id="Path_10552" data-name="Path 10552" d="M712.742,98.492s.146-.008.436,0a4.484,4.484,0,0,1,1.258.28,4.539,4.539,0,0,1,1.745,1.18,4.641,4.641,0,0,1,1.208,2.623c.085,4.377.069,10.74.105,18.8.01,4.031.021,8.481.034,13.308q.007,3.621.015,7.523a10.793,10.793,0,0,1-.089,2,4.819,4.819,0,0,1-4.5,3.863l-37.009.055.228-.125-6.543,10.084-.214.331-.243-.31-7.865-10.075.226.111-31.8.007h-3.821c-.646-.012-1.243.027-1.933-.034a4.842,4.842,0,0,1-1.9-.631,4.9,4.9,0,0,1-2.309-3.144,8.462,8.462,0,0,1-.122-1.932v-1.87q0-7.465,0-14.7t.008-14.186q0-3.475,0-6.877v-1.7a4.88,4.88,0,0,1,2.64-4.32,4.715,4.715,0,0,1,1.668-.507c.593-.054,1.122-.025,1.674-.033l3.257,0,6.382.007,12.2.015,21.9.036,31.717.094,8.623.054,2.242.029c.505.01.764.031.764.031s-.259.02-.764.029c-.525.008-1.271.017-2.242.029l-8.623.055-31.717.094-21.9.036-12.2.015-6.382.007-3.257,0c-.541.007-1.112-.017-1.613.033a4.162,4.162,0,0,0-1.48.452,4.331,4.331,0,0,0-2.337,3.838v1.7q0,3.4,0,6.877,0,6.952.008,14.186t0,14.7v1.87a7.911,7.911,0,0,0,.109,1.8,4.307,4.307,0,0,0,2.03,2.763,4.256,4.256,0,0,0,1.67.555c.571.054,1.243.019,1.867.029h3.821l31.8.007h.14l.087.111,7.854,10.084-.457.019,6.558-10.075.08-.123h.148l36.989.034a4.376,4.376,0,0,0,4.09-3.492,10.475,10.475,0,0,0,.088-1.918q.009-3.9.016-7.523c.013-4.827.023-9.277.033-13.308.021-8.038.038-14.405.05-18.783a4.562,4.562,0,0,0-2.811-3.737A5.509,5.509,0,0,0,712.742,98.492Z" transform="translate(-619.648 -98.221)" fill="#337fc9"/>
        </g>
      </g>
    </g>
    <g id="Group_38764" data-name="Group 38764" transform="translate(9.474 17.506)">
      <rect id="Rectangle_15238" data-name="Rectangle 15238" width="79.027" height="23.028" rx="3.545" fill="#f5f5f5"/>
    </g>
  </g>
</svg>
