<svg xmlns="http://www.w3.org/2000/svg" width="302.106" height="218.293" viewBox="0 0 302.106 218.293">
  <g id="Group_39676" data-name="Group 39676" transform="translate(-42 -259.156)">
    <g id="Group_6769" data-name="Group 6769" transform="translate(42 259.157)">
      <g id="Group_6706" data-name="Group 6706" transform="translate(0 0)">
        <g id="Background_2" data-name="Background 2" transform="translate(0 0)">
          <g id="Group_6693" data-name="Group 6693">
            <g id="Group_6686" data-name="Group 6686">
              <g id="Group_6685" data-name="Group 6685">
                <g id="Group_6684" data-name="Group 6684">
                  <rect id="Rectangle_4658" data-name="Rectangle 4658" width="302.106" height="0.151" transform="translate(0 197.847)" fill="#d1e3ff"/>
                  <rect id="Rectangle_4659" data-name="Rectangle 4659" width="12.409" height="0.151" transform="translate(232.603 204.42)" fill="#d1e3ff"/>
                  <rect id="Rectangle_4660" data-name="Rectangle 4660" width="7.666" height="0.151" transform="translate(249.444 204.345)" fill="#d1e3ff"/>
                  <rect id="Rectangle_4661" data-name="Rectangle 4661" width="23.448" height="0.151" transform="translate(167.298 204.345)" fill="#d1e3ff"/>
                  <rect id="Rectangle_4662" data-name="Rectangle 4662" width="28.673" height="0.151" transform="translate(93.176 206.997)" fill="#d1e3ff"/>
                  <rect id="Rectangle_4663" data-name="Rectangle 4663" width="4.273" height="0.151" transform="translate(57.667 202.213)" fill="#d1e3ff"/>
                  <rect id="Rectangle_4664" data-name="Rectangle 4664" width="32.923" height="0.151" transform="translate(65.295 202.213)" fill="#d1e3ff"/>
                  <rect id="Rectangle_4665" data-name="Rectangle 4665" width="17.298" height="0.151" transform="translate(42.505 205.864)" fill="#d1e3ff"/>
                  <path id="Path_9727" data-name="Path 9727" d="M158.329,225.853H41.656a3.453,3.453,0,0,1-3.449-3.449V58.4a3.453,3.453,0,0,1,3.449-3.448H158.329a3.452,3.452,0,0,1,3.448,3.448v164A3.453,3.453,0,0,1,158.329,225.853ZM41.656,55.1a3.3,3.3,0,0,0-3.3,3.3v164a3.3,3.3,0,0,0,3.3,3.3H158.329a3.3,3.3,0,0,0,3.3-3.3V58.4a3.3,3.3,0,0,0-3.3-3.3Z" transform="translate(-15.122 -54.953)" fill="#d1e3ff"/>
                  <path id="Path_9728" data-name="Path 9728" d="M374.626,225.853H257.953A3.453,3.453,0,0,1,254.5,222.4V58.4a3.452,3.452,0,0,1,3.448-3.448H374.626a3.453,3.453,0,0,1,3.449,3.448v164A3.453,3.453,0,0,1,374.626,225.853ZM257.953,55.1a3.3,3.3,0,0,0-3.3,3.3v164a3.3,3.3,0,0,0,3.3,3.3H374.626a3.3,3.3,0,0,0,3.3-3.3V58.4a3.3,3.3,0,0,0-3.3-3.3Z" transform="translate(-100.73 -54.953)" fill="#d1e3ff"/>
                </g>
              </g>
            </g>
            <g id="Group_6692" data-name="Group 6692" transform="translate(23.965 8.454)">
              <g id="Group_6687" data-name="Group 6687" transform="translate(0 152.263)" opacity="0.39">
                <path id="Path_9729" data-name="Path 9729" d="M62.36,368.49H49.944s-7.643-6.79-10.13-15.9c-1.146-4.2,4.492-7.1,7.9-4.1C55.707,355.514,62.36,368.49,62.36,368.49Z" transform="translate(-39.663 -331.36)" fill="#2c7dd4"/>
                <path id="Path_9730" data-name="Path 9730" d="M74.481,363.547H62.064s-7.1-14.583-4.357-25.2a4.743,4.743,0,0,1,8.125-2.005C75.225,346.674,74.481,363.547,74.481,363.547Z" transform="translate(-46.555 -326.417)" fill="#2c7dd4"/>
                <path id="Path_9731" data-name="Path 9731" d="M85.9,362.841h8.013s5.031-8.863,9.751-19.755c4.4-10.157-3.1-14.4-7.816-4.416C89.857,351.37,85.9,362.841,85.9,362.841Z" transform="translate(-57.965 -325.711)" fill="#2c7dd4"/>
                <path id="Path_9732" data-name="Path 9732" d="M89.532,368.55h12.416s12.5-5.915,11.8-17.109c-.183-2.929-3.534-4.834-6.5-3.7C93.926,352.852,89.532,368.55,89.532,368.55Z" transform="translate(-59.4 -331.42)" fill="#2c7dd4"/>
                <path id="Path_9733" data-name="Path 9733" d="M77.142,358.076H89.558s3.752-20.709-.7-33.757c-1.329-3.9-6.054-4.579-8.23-1.191C72.541,335.725,77.142,358.076,77.142,358.076Z" transform="translate(-53.981 -320.946)" fill="#2c7dd4"/>
              </g>
              <g id="Group_6691" data-name="Group 6691" transform="translate(20.136 27.374)">
                <path id="Path_9734" data-name="Path 9734" d="M214.111,181.806l34.977-27.775,101.963,32.81H214.111Z" transform="translate(-128.843 -129.995)" fill="#337fc9"/>
                <rect id="Rectangle_4666" data-name="Rectangle 4666" width="58.273" height="100.137" transform="translate(217.926 162.019) rotate(180)" fill="#dfe6f0"/>
                <g id="Group_6688" data-name="Group 6688" transform="translate(182.424 132.164)" opacity="0.392">
                  <path id="Path_9735" data-name="Path 9735" d="M395.406,371.215H384.194s-6.9-5.46-9.148-12.786c-1.034-3.374,4.056-5.706,7.138-3.294C389.4,360.782,395.406,371.215,395.406,371.215Z" transform="translate(-374.909 -341.36)" fill="#2c7dd4"/>
                  <path id="Path_9736" data-name="Path 9736" d="M406.351,367.24H395.139s-6.412-11.725-3.935-20.262c.859-2.961,5.028-3.874,7.337-1.613C407.024,353.673,406.351,367.24,406.351,367.24Z" transform="translate(-381.133 -337.385)" fill="#2c7dd4"/>
                  <path id="Path_9737" data-name="Path 9737" d="M416.667,366.673H423.9a178.277,178.277,0,0,0,8.805-15.884c3.976-8.167-2.8-11.58-7.058-3.551A203.317,203.317,0,0,0,416.667,366.673Z" transform="translate(-391.436 -336.818)" fill="#2c7dd4"/>
                  <path id="Path_9738" data-name="Path 9738" d="M419.944,371.264h11.212s11.29-4.756,10.659-13.757c-.166-2.355-3.192-3.886-5.869-2.973C423.912,358.641,419.944,371.264,419.944,371.264Z" transform="translate(-392.733 -341.408)" fill="#2c7dd4"/>
                  <path id="Path_9739" data-name="Path 9739" d="M408.755,362.841h11.212s3.388-16.652-.628-27.143a4.276,4.276,0,0,0-7.432-.958C404.6,344.87,408.755,362.841,408.755,362.841Z" transform="translate(-387.839 -332.986)" fill="#2c7dd4"/>
                </g>
                <path id="Path_9740" data-name="Path 9740" d="M337.222,213.368H395.5l4.282-5.035H337.222Z" transform="translate(-177.569 -151.487)" fill="#337fc9" opacity="0.314"/>
                <g id="Group_6689" data-name="Group 6689" transform="translate(134.017 70.214)">
                  <rect id="Rectangle_4667" data-name="Rectangle 4667" width="58.167" height="48.673" fill="#337fc9"/>
                  <rect id="Rectangle_4668" data-name="Rectangle 4668" width="42.531" height="52.7" transform="translate(55.433 3.071) rotate(90)" fill="#f4f4f4"/>
                  <rect id="Rectangle_4669" data-name="Rectangle 4669" width="55.906" height="4.122" transform="translate(1.131 22.275)" fill="#337fc9"/>
                </g>
                <rect id="Rectangle_4670" data-name="Rectangle 4670" width="148.771" height="117.546" transform="translate(10.883 44.473)" fill="rgba(32,87,166,0.11)"/>
                <g id="Group_6690" data-name="Group 6690" transform="translate(22.41 65.435)">
                  <rect id="Rectangle_4671" data-name="Rectangle 4671" width="69.59" height="58.231" fill="#337fc9"/>
                  <rect id="Rectangle_4672" data-name="Rectangle 4672" width="50.884" height="63.049" transform="translate(66.32 3.674) rotate(90)" fill="#fff"/>
                  <rect id="Rectangle_4673" data-name="Rectangle 4673" width="40.377" height="63.049" transform="translate(66.32 3.674) rotate(90)" fill="#f4f4f4"/>
                  <rect id="Rectangle_4674" data-name="Rectangle 4674" width="66.885" height="4.932" transform="translate(1.353 41.585)" fill="#337fc9"/>
                </g>
                <rect id="Rectangle_4675" data-name="Rectangle 4675" width="39.764" height="84.546" transform="translate(147.703 147.613) rotate(180)" fill="#337fc9"/>
                <rect id="Rectangle_4676" data-name="Rectangle 4676" width="82.627" height="35.574" transform="translate(145.608 64.986) rotate(90)" fill="#e2e2e2"/>
                <rect id="Rectangle_4677" data-name="Rectangle 4677" width="32.465" height="29.291" transform="translate(142.467 68.3) rotate(90)" fill="#337fc9"/>
                <rect id="Rectangle_4678" data-name="Rectangle 4678" width="32.465" height="29.291" transform="translate(142.467 105.727) rotate(90)" fill="#c6c6c6"/>
                <path id="Path_9741" data-name="Path 9741" d="M240.6,168.251H87V157.644l76.8-40.012,76.8,40.012Z" transform="translate(-78.534 -115.588)" fill="rgba(32,87,166,0.11)"/>
                <path id="Path_9742" data-name="Path 9742" d="M241.85,161.887l-83.593-43.55-83.593,43.55-1.675-3.215,85.268-44.422,85.268,44.422Z" transform="translate(-72.989 -114.249)" fill="#337fc9"/>
                <path id="Path_9743" data-name="Path 9743" d="M203.278,168.059a16.539,16.539,0,1,1,16.538-16.538A16.557,16.557,0,0,1,203.278,168.059Zm0-29.452a12.913,12.913,0,1,0,12.913,12.913A12.928,12.928,0,0,0,203.278,138.607Z" transform="translate(-118.01 -122.455)" fill="#337fc9"/>
                <circle id="Ellipse_2381" data-name="Ellipse 2381" cx="12.04" cy="12.04" r="12.04" transform="translate(73.228 17.025)" fill="#e8e8e8"/>
                <path id="Path_9744" data-name="Path 9744" d="M307.875,280.376a2.194,2.194,0,1,1-2.194-2.194A2.194,2.194,0,0,1,307.875,280.376Z" transform="translate(-164.217 -179.132)" fill="#fff"/>
              </g>
              <path id="Path_9745" data-name="Path 9745" d="M70.018,81.909c-3.505-7.573-.723-12.965,7.844-12.965,5.373,0,12.035,2.123,18.522,5.577.733-1.97,2.8-3.15,6.118-3.15,5.844,0,13.9,3.648,20.219,8.794a11.651,11.651,0,0,1,6.585-1.963c5.593-.232,12.367,1.863,18.256,5.272a3.59,3.59,0,0,1,2.592-.982c3.223-.132,7.586,1.983,9.753,4.722.135.172.254.338.375.5H65.666C62.676,85.034,65.981,82.044,70.018,81.909Z" transform="translate(-49.498 -68.944)" fill="#f4f4f4"/>
              <path id="Path_9746" data-name="Path 9746" d="M274.918,104.343a7.64,7.64,0,0,1,.81-.043c-.251-2.809,1.2-4.6,4.313-4.6a16.888,16.888,0,0,1,7.8,2.521c-.8-5.452,1.768-9,7.588-9,4.7,0,10.64,2.305,16.512,6.064.515-2.139,2.245-3.421,5.151-3.421,5.107,0,12.363,3.961,18.181,9.55,0,0,0,.007.007,0a8.347,8.347,0,0,1,5.628-2.139c4.862-.252,10.9,2.024,16.252,5.733a2.628,2.628,0,0,1,2.21-1.066c2.659-.137,6.323,1.909,8.451,4.646H270.639C268.357,108.441,270.175,104.811,274.918,104.343Z" transform="translate(-130.693 -78.553)" fill="#f4f4f4"/>
            </g>
          </g>
        </g>
        <g id="Objects" transform="translate(81.757 31.49)">
          <g id="Group_6701" data-name="Group 6701" transform="translate(0 0)">
            <g id="Group_6697" data-name="Group 6697" transform="translate(65.865)">
              <g id="Group_6694" data-name="Group 6694" transform="translate(0)">
                <rect id="Rectangle_4683" data-name="Rectangle 4683" width="3.088" height="39.019" rx="0.958" transform="translate(36.084 4.587) rotate(67.635)" fill="#e2e2e2"/>
                <rect id="Rectangle_4684" data-name="Rectangle 4684" width="3.088" height="2.883" transform="translate(27.892 7.958) rotate(67.635)" fill="#e2e2e2"/>
                <path id="Rectangle_4685" data-name="Rectangle 4685" d="M3.557,0h7.854a3.557,3.557,0,0,1,3.557,3.557v0a3.557,3.557,0,0,1-3.557,3.557H3.557A3.557,3.557,0,0,1,0,3.557v0A3.557,3.557,0,0,1,3.557,0Z" transform="translate(31.621 0) rotate(67.634)" fill="#337fc9"/>
              </g>
              <g id="Group_6696" data-name="Group 6696" transform="translate(1.001 13.104)">
                <path id="Path_9747" data-name="Path 9747" d="M271.994,400.528h-4.4l-1.171-10.195h4.4Z" transform="translate(-254.068 -232.287)" fill="#ff8b7b"/>
                <path id="Path_9748" data-name="Path 9748" d="M321.788,400.528h-4.4l-3.43-10.195h4.4Z" transform="translate(-272.882 -232.287)" fill="#ff8b7b"/>
                <path id="Path_9749" data-name="Path 9749" d="M314.165,406.362h5.367a.384.384,0,0,1,.375.3l.869,3.913a.647.647,0,0,1-.644.783c-1.727-.03-2.987-.131-5.162-.131-1.338,0-4.095.139-5.942.139-1.807,0-2.089-1.827-1.333-1.993a10.9,10.9,0,0,0,5.756-2.741A1.069,1.069,0,0,1,314.165,406.362Z" transform="translate(-270.249 -238.631)" fill="#337fc9"/>
                <path id="Path_9750" data-name="Path 9750" d="M261.445,406.362h4.807a.384.384,0,0,1,.375.3l.869,3.913a.641.641,0,0,1-.633.783c-1.734-.03-4.24-.131-6.42-.131-2.549,0-4.75.139-7.739.139-1.807,0-2.309-1.827-1.552-1.993,3.444-.754,6.256-.834,9.232-2.669A2.041,2.041,0,0,1,261.445,406.362Z" transform="translate(-247.891 -238.631)" fill="#337fc9"/>
                <path id="Path_9751" data-name="Path 9751" d="M260.747,173.179c-.733-.612-1.372-1.176-2.025-1.79s-1.288-1.213-1.918-1.833c-1.253-1.249-2.469-2.541-3.635-3.894a53.562,53.562,0,0,1-3.335-4.269l-.776-1.14-.73-1.2c-.249-.39-.464-.828-.692-1.245l-.337-.633c-.121-.254-.246-.5-.351-.766a12.993,12.993,0,0,1-.9-6.4,18.688,18.688,0,0,1,1.593-5.682,27.831,27.831,0,0,1,2.791-4.793c.533-.737,1.1-1.443,1.683-2.129a25.435,25.435,0,0,1,1.88-2l2.477,2.188c-.407.621-.859,1.344-1.263,2.032s-.787,1.416-1.144,2.133a28.137,28.137,0,0,0-1.775,4.35c-.912,2.911-1.005,5.8.1,7.834.063.132.142.256.212.382l.3.474c.208.316.388.634.626.947l.676.941.72.935c.988,1.236,2.048,2.448,3.153,3.64s2.261,2.354,3.438,3.5c1.153,1.147,2.407,2.291,3.555,3.339Z" transform="translate(-245.977 -131.39)" fill="#ff8b7b"/>
                <path id="Path_9752" data-name="Path 9752" d="M270.72,192.4c-4.115.885-14.474-8.264-14.474-8.264l6.031-8s6.112,5.02,11.281,6.732C278.866,184.626,275.236,191.431,270.72,192.4Z" transform="translate(-250.041 -147.511)" fill="#337fc9"/>
                <path id="Path_9753" data-name="Path 9753" d="M256.5,138.393l.5-3.726h5.79s-1.418,5.641-4.6,5.264Z" transform="translate(-250.143 -131.098)" fill="#ff8b7b"/>
                <path id="Path_9754" data-name="Path 9754" d="M258.645,129.685l3.917-.926.565,3.569h-5.79Z" transform="translate(-250.473 -128.759)" fill="#ff8b7b"/>
                <g id="Group_6695" data-name="Group 6695" transform="translate(12.353 158.049)">
                  <path id="Path_9755" data-name="Path 9755" d="M266.422,390.337l.6,5.255h4.4l-.6-5.255Z" transform="translate(-266.422 -390.337)" fill="#ea7063"/>
                  <path id="Path_9756" data-name="Path 9756" d="M318.36,390.337h-4.4l1.77,5.255h4.4Z" transform="translate(-285.235 -390.337)" fill="#ea7063"/>
                </g>
                <path id="Path_9757" data-name="Path 9757" d="M268.908,189.359s-5.2,13.293-.26,38.051h23.546c.163-3.615-2.109-21.247,1.378-38.278a61.338,61.338,0,0,0-7.883-1,86.516,86.516,0,0,0-10.009,0A44.189,44.189,0,0,0,268.908,189.359Z" transform="translate(-254.107 -152.202)" fill="#327ec8"/>
                <path id="Path_9758" data-name="Path 9758" d="M280.243,201.555c-1.917-.089-2.958-.069-3.406-.05l-.172.008a74.824,74.824,0,0,0-.979,21.145l6.37.135a145.39,145.39,0,0,1,1.48-21.03C282.562,201.688,281.416,201.61,280.243,201.555Z" transform="translate(-257.614 -157.545)" fill="#e2e2e2"/>
                <path id="Path_9759" data-name="Path 9759" d="M290.224,169.579c-.631,3.221-1.262,9.122.992,11.271a14.6,14.6,0,0,1-8.656,3.669c-2.6-.941-2.128-2.535-1.858-3.057a1.613,1.613,0,0,1,.975-.741c3.111-.973,3-3.508,2.4-5.9Z" transform="translate(-259.634 -144.915)" fill="#ff8b7b"/>
                <path id="Path_9760" data-name="Path 9760" d="M290.076,173.122l-3.637,3.1a10.39,10.39,0,0,1,.309,1.776,3.2,3.2,0,0,0,3.3-2.772A12.974,12.974,0,0,0,290.076,173.122Z" transform="translate(-261.991 -146.318)" fill="#ea7063"/>
                <path id="Path_9761" data-name="Path 9761" d="M275.892,153.9c-2.023,1.2-2.6,8,.33,9S279.723,151.624,275.892,153.9Z" transform="translate(-257.146 -138.598)" fill="#0f264c"/>
                <path id="Path_9762" data-name="Path 9762" d="M278.618,155.982c-2.1-.263-8.7.218-7.127-3.956s8.512-1.6,9.046.372S282.291,156.44,278.618,155.982Z" transform="translate(-255.98 -137.082)" fill="#0f264c"/>
                <path id="Path_9763" data-name="Path 9763" d="M287.177,157.359c.324,4.357.735,6.891-1.145,9.406-2.828,3.784-8.431,2.532-10.05-1.64-1.457-3.756-1.742-10.25,2.253-12.546A5.959,5.959,0,0,1,287.177,157.359Z" transform="translate(-257.462 -137.862)" fill="#ff8b7b"/>
                <path id="Path_9764" data-name="Path 9764" d="M292.758,161.819c-2.153,1.25-7.973-7.377-1.124-9.327S296.239,159.8,292.758,161.819Z" transform="translate(-262.766 -138.046)" fill="#0f264c"/>
                <path id="Path_9765" data-name="Path 9765" d="M284.241,152.554c-2.808-.808-11.888-1.564-8.852-6.907s11.924-.35,12.23,2.441S289.14,153.964,284.241,152.554Z" transform="translate(-257.375 -134.507)" fill="#0f264c"/>
                <path id="Path_9766" data-name="Path 9766" d="M288.9,149.827c-1.172-2.137-6.062-7.958-1.114-9.3s7.216,6.854,5.743,8.676S290.948,153.556,288.9,149.827Z" transform="translate(-261.666 -133.358)" fill="#0f264c"/>
                <path id="Path_9767" data-name="Path 9767" d="M298.544,150.256a16.4,16.4,0,0,0,.746-5.131C299.929,146.11,300.533,149.267,298.544,150.256Z" transform="translate(-266.782 -135.237)" fill="#0f264c"/>
                <path id="Path_9768" data-name="Path 9768" d="M301.548,152.642a9.806,9.806,0,0,0-3.962.1C298.181,151.964,300.394,150.868,301.548,152.642Z" transform="translate(-266.403 -137.834)" fill="#0f264c"/>
                <path id="Path_9769" data-name="Path 9769" d="M292.949,154.739c1.248,1.219,4.323,5.709,6.2,2.555s-3.339-6.292-4.878-5.627S290.771,152.613,292.949,154.739Z" transform="translate(-264.184 -137.79)" fill="#0f264c"/>
                <path id="Path_9770" data-name="Path 9770" d="M296.674,166.675a4.155,4.155,0,0,1-2.317,2.166c-1.367.5-2.166-.692-1.882-2.043.255-1.216,1.274-2.941,2.692-2.863A1.866,1.866,0,0,1,296.674,166.675Z" transform="translate(-264.358 -142.681)" fill="#ff8b7b"/>
                <path id="Path_9771" data-name="Path 9771" d="M262.212,253.232s-12.417,31.458-11.939,44.883c.5,13.964,8.7,42.2,8.7,42.2h7.458s-3.054-27.416-2.722-41.129c.361-14.951,13.977-45.949,13.977-45.949Z" transform="translate(-247.672 -178.024)" fill="#ccc"/>
                <path id="Path_9772" data-name="Path 9772" d="M282.416,270.44l.719,1.619a212.069,212.069,0,0,0-6.8,20.543C276.132,284.663,277.776,275.914,282.416,270.44Z" transform="translate(-257.987 -184.835)" fill="#2b6ad8"/>
                <path id="Path_9773" data-name="Path 9773" d="M283.178,253.232s-2.509,32.186.234,44.79c3,13.8,17.647,42.288,17.647,42.288h8.063s-10.788-27.371-12.5-41.036c-1.86-14.832,1.753-46.042,1.753-46.042Z" transform="translate(-260.286 -178.024)" fill="#ccc"/>
                <path id="Path_9774" data-name="Path 9774" d="M310.284,395.66h10.54v-2.836l-11.782-.185Z" transform="translate(-270.937 -233.199)" fill="#ccc"/>
                <path id="Path_9775" data-name="Path 9775" d="M261.117,395.66h10.54v-2.87l-11.782-.151Z" transform="translate(-251.478 -233.199)" fill="#ccc"/>
                <path id="Path_9776" data-name="Path 9776" d="M284.031,164.124c.048.352-.1.662-.33.694s-.455-.228-.5-.58.1-.663.33-.694S283.983,163.773,284.031,164.124Z" transform="translate(-260.705 -142.526)" fill="#0f264c"/>
                <path id="Path_9777" data-name="Path 9777" d="M277.449,165.021c.048.352-.1.663-.33.694s-.455-.229-.5-.581.1-.662.33-.694S277.4,164.67,277.449,165.021Z" transform="translate(-258.1 -142.881)" fill="#0f264c"/>
                <path id="Path_9778" data-name="Path 9778" d="M279.3,165.408a12.7,12.7,0,0,1-1.271,3.238,2.047,2.047,0,0,0,1.724.086Z" transform="translate(-258.663 -143.264)" fill="#ff5652"/>
                <path id="Path_9779" data-name="Path 9779" d="M282.707,171.2a.1.1,0,0,1-.014-.208,2.816,2.816,0,0,0,2.124-1.4.1.1,0,0,1,.189.089,2.974,2.974,0,0,1-2.284,1.517Z" transform="translate(-260.473 -144.896)" fill="#0f264c"/>
                <path id="Path_9780" data-name="Path 9780" d="M285.04,161.459a.21.21,0,0,1-.148-.061,1.65,1.65,0,0,0-1.419-.509.211.211,0,0,1-.245-.163.207.207,0,0,1,.161-.245,2.072,2.072,0,0,1,1.8.623.208.208,0,0,1-.148.356Z" transform="translate(-260.719 -141.305)" fill="#0f264c"/>
                <path id="Path_9781" data-name="Path 9781" d="M274.628,162.461a.2.2,0,0,1-.065-.011.209.209,0,0,1-.134-.263,2.066,2.066,0,0,1,1.327-1.366.208.208,0,0,1,.108.4h0a1.651,1.651,0,0,0-1.038,1.093A.21.21,0,0,1,274.628,162.461Z" transform="translate(-257.234 -141.446)" fill="#0f264c"/>
                <path id="Path_9782" data-name="Path 9782" d="M302.207,197.373c.19,2.016.272,3.935.341,5.9s.051,3.923,0,5.9a55.658,55.658,0,0,1-1.415,12.059,20.093,20.093,0,0,1-1.091,3.193c-.1.257-.277.583-.428.866-.152.259-.308.534-.462.763-.308.488-.622.914-.941,1.335a54.282,54.282,0,0,1-3.943,4.542,102.59,102.59,0,0,1-8.54,7.945l-2.364-2.311c2.319-3.008,4.683-6.013,6.932-9,1.109-1.5,2.22-3.007,3.141-4.483a10.713,10.713,0,0,0,1.038-1.99,14.343,14.343,0,0,0,.62-2.277,39.639,39.639,0,0,0,.642-5.24c.116-1.809.184-3.651.185-5.5,0-3.689-.137-7.485-.367-11.134Z" transform="translate(-260.776 -155.916)" fill="#ff8b7b"/>
                <path id="Path_9783" data-name="Path 9783" d="M311.258,192.723c3.459,5.523.558,14.578.558,14.578l-10.717-.316s.642-5.458.941-10.89C302.363,190.244,307.866,187.308,311.258,192.723Z" transform="translate(-267.794 -152.945)" fill="#337fc9"/>
                <path id="Path_9784" data-name="Path 9784" d="M315.553,406.906a1.334,1.334,0,0,1-.848-.225.63.63,0,0,1-.216-.551.333.333,0,0,1,.178-.3c.491-.247,1.907.623,2.068.723a.1.1,0,0,1-.031.19A5.169,5.169,0,0,1,315.553,406.906Zm-.654-.912a.3.3,0,0,0-.135.027c-.028.014-.06.041-.066.122a.425.425,0,0,0,.141.378,2.117,2.117,0,0,0,1.563.08A4.207,4.207,0,0,0,314.9,405.994Z" transform="translate(-273.093 -238.405)" fill="#ccc"/>
                <path id="Path_9785" data-name="Path 9785" d="M317.265,406.073a.1.1,0,0,1-.05-.013c-.456-.247-1.337-1.212-1.243-1.7a.339.339,0,0,1,.331-.273.56.56,0,0,1,.445.134c.511.418.616,1.688.62,1.742a.1.1,0,0,1-.047.1A.106.106,0,0,1,317.265,406.073Zm-.888-1.785a.416.416,0,0,0-.047,0c-.135.017-.147.079-.153.105-.054.29.506,1.019.959,1.363a2.51,2.51,0,0,0-.52-1.379A.37.37,0,0,0,316.377,404.288Z" transform="translate(-273.678 -237.727)" fill="#ccc"/>
                <path id="Path_9786" data-name="Path 9786" d="M264.55,406.905a1.674,1.674,0,0,1-1.071-.27.585.585,0,0,1-.2-.507.331.331,0,0,1,.172-.278c.54-.3,2.3.6,2.5.7a.1.1,0,0,1-.027.195A7.461,7.461,0,0,1,264.55,406.905Zm-.8-.911a.4.4,0,0,0-.194.038.124.124,0,0,0-.066.111.382.382,0,0,0,.126.335,2.825,2.825,0,0,0,1.967.121A5.728,5.728,0,0,0,263.752,405.994Z" transform="translate(-252.826 -238.405)" fill="#ccc"/>
                <path id="Path_9787" data-name="Path 9787" d="M266.62,406.073a.1.1,0,0,1-.043-.01c-.532-.238-1.584-1.19-1.5-1.688.019-.117.1-.262.388-.291a.764.764,0,0,1,.578.179,2.979,2.979,0,0,1,.683,1.7.1.1,0,0,1-.1.114Zm-1.074-1.785a.553.553,0,0,0-.062,0c-.188.019-.2.092-.2.117-.048.3.666,1.047,1.209,1.373a2.455,2.455,0,0,0-.581-1.358A.558.558,0,0,0,265.546,404.288Z" transform="translate(-253.534 -237.728)" fill="#ccc"/>
                <path id="Path_9788" data-name="Path 9788" d="M283.952,262.292l-4.231-1.439.575,5.594s3.874.425,4.329-1.6Z" transform="translate(-259.332 -181.04)" fill="#ff8b7b"/>
                <path id="Path_9789" data-name="Path 9789" d="M268.836,265.373l3.79,1.273,3.362-.2-.575-5.594Z" transform="translate(-255.024 -181.04)" fill="#ff8b7b"/>
              </g>
            </g>
            <g id="Group_6700" data-name="Group 6700" transform="translate(0 90.433)">
              <path id="Path_9804" data-name="Path 9804" d="M0,0H7.857V95.811H0Z" transform="translate(45.194 0.558)" fill="#e2e2e2"/>
              <path id="Path_9790" data-name="Path 9790" d="M217.967,257.425c0,.2-1.759.369-3.929.369s-3.929-.166-3.929-.369,1.759-.369,3.929-.369S217.967,257.221,217.967,257.425Z" transform="translate(-164.915 -256.866)" fill="#e2e2e2"/>
              <path id="Path_9791" data-name="Path 9791" d="M217.967,353.034l-7.857-.568v-5.911h7.857Z" transform="translate(-164.915 -292.289)" fill="#e2e2e2" opacity="0.2" style="mix-blend-mode: multiply;isolation: isolate"/>
              <g id="Group_6699" data-name="Group 6699" transform="translate(0 0)">
                <rect id="Rectangle_4687" data-name="Rectangle 4687" width="86.203" height="53.425" transform="translate(8.512 0.337) rotate(5.011)" fill="#a2a2a2"/>
                <rect id="Rectangle_4688" data-name="Rectangle 4688" width="3.354" height="0.604" transform="translate(1.67 9.947) rotate(-84.957)" fill="#a2a2a2"/>
                <rect id="Rectangle_4689" data-name="Rectangle 4689" width="8.228" height="0.604" transform="translate(0.622 21.885) rotate(-84.957)" fill="#a2a2a2"/>
                <rect id="Rectangle_4690" data-name="Rectangle 4690" width="86.203" height="53.425" transform="translate(4.666 0) rotate(5.011)" fill="#4f91d9"/>
                <path id="Path_9792" data-name="Path 9792" d="M275.3,282.417l-16.109-.739,16,2.009Z" transform="translate(-184.342 -266.612)" fill="#a2a2a2" opacity="0.4"/>
                <path id="Path_9793" data-name="Path 9793" d="M278.212,285.9l-9.938.139,9.771,1.767Z" transform="translate(-187.936 -268.281)" fill="#a2a2a2" opacity="0.4"/>
                <path id="Path_9794" data-name="Path 9794" d="M137.272,321.631l8.688.088-8.577-1.359Z" transform="translate(-136.087 -281.921)" fill="#a2a2a2" opacity="0.4"/>
                <path id="Path_9795" data-name="Path 9795" d="M138.727,304.612l7.477-.355-7.31-1.551Z" transform="translate(-136.663 -274.934)" fill="#a2a2a2" opacity="0.4"/>
                <path id="Path_9796" data-name="Path 9796" d="M274.531,347.921l-7.477.355,7.31,1.551Z" transform="translate(-187.453 -292.83)" fill="#a2a2a2" opacity="0.4"/>
              </g>
            </g>
          </g>
        </g>
      </g>
    </g>
    <g id="Group_6770" data-name="Group 6770" transform="matrix(0.999, 0.035, -0.035, 0.999, 141.255, 386.594)">
      <text id="للبيع" transform="matrix(0.995, 0.105, -0.105, 0.995, 10.91, 10.994)" fill="#fff" font-size="22" font-family="SegoeUI, Segoe UI"><tspan x="1.748" y="24">للبيع</tspan></text>
    </g>
  </g>
</svg>
