<svg xmlns="http://www.w3.org/2000/svg" xmlns:xlink="http://www.w3.org/1999/xlink" width="233.071" height="244.076" viewBox="0 0 233.071 244.076">
  <defs>
    <linearGradient id="linear-gradient" x1="2.592" y1="-0.43" x2="2.593" y2="0.08" gradientUnits="objectBoundingBox">
      <stop offset="0" stop-color="#444b8c"/>
      <stop offset="0.996" stop-color="#26264f"/>
    </linearGradient>
    <linearGradient id="linear-gradient-2" x1="2.594" y1="0.745" x2="2.692" y2="-1.816" xlink:href="#linear-gradient"/>
    <linearGradient id="linear-gradient-3" x1="2.333" y1="0.5" x2="3.333" y2="0.5" gradientUnits="objectBoundingBox">
      <stop offset="0" stop-color="#337fc9"/>
      <stop offset="1" stop-color="#fb6fbb"/>
    </linearGradient>
    <linearGradient id="linear-gradient-4" x1="115.154" y1="-33.91" x2="116.161" y2="-33.91" gradientUnits="objectBoundingBox">
      <stop offset="0" stop-color="#ff9085"/>
      <stop offset="1" stop-color="#fb6fbb"/>
    </linearGradient>
    <linearGradient id="linear-gradient-5" x1="30.136" y1="0.336" x2="30.15" y2="1.826" xlink:href="#linear-gradient"/>
    <linearGradient id="linear-gradient-6" x1="38.807" y1="0.684" x2="38.824" y2="2.391" xlink:href="#linear-gradient"/>
    <linearGradient id="linear-gradient-7" x1="54.668" y1="1.283" x2="54.691" y2="3.343" xlink:href="#linear-gradient"/>
    <linearGradient id="linear-gradient-8" x1="2.398" y1="0.5" x2="3.398" y2="0.5" gradientUnits="objectBoundingBox">
      <stop offset="0" stop-color="#2057a6"/>
      <stop offset="1" stop-color="#337fc9"/>
    </linearGradient>
    <linearGradient id="linear-gradient-9" x1="1.064" y1="0.653" x2="-2.233" y2="0.745" gradientUnits="objectBoundingBox">
      <stop offset="0" stop-color="#e38ddd"/>
      <stop offset="0.004" stop-color="#337fc9"/>
      <stop offset="1" stop-color="#2057a6"/>
    </linearGradient>
    <linearGradient id="linear-gradient-10" x1="-1.744" y1="0.285" x2="-2.471" y2="0.925" gradientUnits="objectBoundingBox">
      <stop offset="0.004" stop-color="#e38ddd"/>
      <stop offset="1" stop-color="#9571f6"/>
    </linearGradient>
    <linearGradient id="linear-gradient-11" x1="-0.535" y1="-0.044" x2="-0.277" y2="1.485" gradientUnits="objectBoundingBox">
      <stop offset="0" stop-color="#2057a6"/>
      <stop offset="0.996" stop-color="#337fc9"/>
      <stop offset="1" stop-color="#6165d7"/>
    </linearGradient>
    <linearGradient id="linear-gradient-12" x1="-0.63" y1="-0.886" x2="-0.365" y2="1.918" gradientUnits="objectBoundingBox">
      <stop offset="0" stop-color="#aa80f9"/>
      <stop offset="0.996" stop-color="#6165d7"/>
    </linearGradient>
    <linearGradient id="linear-gradient-13" x1="4.881" y1="0.186" x2="3.77" y2="0.814" gradientUnits="objectBoundingBox">
      <stop offset="0" stop-color="#e38ddd"/>
      <stop offset="0.004" stop-color="#337fc9"/>
      <stop offset="1" stop-color="#0d346e"/>
    </linearGradient>
    <linearGradient id="linear-gradient-14" x1="5.506" y1="0.492" x2="4.298" y2="0.506" gradientUnits="objectBoundingBox">
      <stop offset="0" stop-color="#311944"/>
      <stop offset="1" stop-color="#337fc9"/>
    </linearGradient>
    <clipPath id="clip-path">
      <path id="Path_26818" data-name="Path 26818" d="M-1401.36,527.749c4.387,0,8.7-1.841,12.813-5.47,4.188-3.695,7.976-9.038,11.258-15.883,6.9-14.39,10.7-33.58,10.7-54.037s-3.8-39.647-10.7-54.037c-3.282-6.845-7.07-12.189-11.258-15.883-4.115-3.63-8.426-5.47-12.813-5.47s-8.7,1.841-12.813,5.47c-4.188,3.694-7.976,9.038-11.258,15.883-6.9,14.389-10.7,33.58-10.7,54.037s3.8,39.647,10.7,54.037c3.282,6.845,7.07,12.189,11.258,15.883C-1410.059,525.909-1405.748,527.749-1401.36,527.749Z" transform="translate(1436.131 -376.968)" fill="none"/>
    </clipPath>
  </defs>
  <g id="Group_39745" data-name="Group 39745" transform="translate(3437.646 -347.223)">
    <g id="Group_39742" data-name="Group 39742" transform="translate(-3437.647 347.223)">
      <g id="Group_39737" data-name="Group 39737" transform="translate(4.903 214.739)">
        <path id="Path_26800" data-name="Path 26800" d="M-2973.338,2808.151l-133.618-9.227a2.662,2.662,0,0,0-.483,0l-79.574,3.6c-1.9.173-1.817,5.157.344,5.429l125.032,16.742a6.153,6.153,0,0,0,1.541,0l86.513-12.156C-2972.429,2812.337-2972.007,2808.249-2973.338,2808.151Z" transform="translate(3188.369 -2795.408)" fill="url(#linear-gradient)"/>
        <path id="Path_26801" data-name="Path 26801" d="M-2967.126,2772.146l-133.354-12.584a2.664,2.664,0,0,0-.483,0l-79.188,6.952a1.216,1.216,0,0,0-.043,2.419l125.031,15.429a6.153,6.153,0,0,0,1.541,0l86.513-11.181A.518.518,0,0,0-2967.126,2772.146Z" transform="translate(3181.894 -2759.55)" fill="url(#linear-gradient-2)"/>
        <path id="Path_26802" data-name="Path 26802" d="M-2977.921,2798.77a4.356,4.356,0,0,0,.555-.036l77.54-10.021a.239.239,0,0,0-.008-.475l-119.072-11.213c-.027,0-.053,0-.08,0s-.049,0-.073,0l-75.694,6.645a.294.294,0,0,0-.01.584l116.312,14.483A4.331,4.331,0,0,0-2977.921,2798.77Z" transform="translate(3103.33 -2775.466)" fill="url(#linear-gradient-3)"/>
        <path id="Path_26803" data-name="Path 26803" d="M-1284.009,2960.506c.028.231.758.333,1.629.227s1.555-.379,1.527-.611-.757-.333-1.629-.227S-1284.037,2960.274-1284.009,2960.506Z" transform="translate(1453.531 -2942.022)" fill="url(#linear-gradient-4)"/>
        <g id="Group_39736" data-name="Group 39736" transform="translate(75.938 20.011)">
          <path id="Path_26804" data-name="Path 26804" d="M-2006.035,3025.381l12,1.577c.877.115,1.595-.313,1.595-.958h0c0-.645-.718-1.252-1.595-1.354l-12-1.4c-.741-.087-1.337.318-1.337.9h0A1.436,1.436,0,0,0-2006.035,3025.381Z" transform="translate(2036.563 -3019.77)" fill="url(#linear-gradient-5)"/>
          <path id="Path_26805" data-name="Path 26805" d="M-2150.988,3008.014l9.884,1.3c.717.094,1.3-.3,1.3-.884h0a1.386,1.386,0,0,0-1.3-1.207l-9.884-1.155a.912.912,0,0,0-1.11.836h0A1.228,1.228,0,0,0-2150.988,3008.014Z" transform="translate(2168.406 -3004.125)" fill="url(#linear-gradient-6)"/>
          <path id="Path_26806" data-name="Path 26806" d="M-2334.45,2986.063l7.52.988a.816.816,0,0,0,.981-.786h0a1.1,1.1,0,0,0-.981-1.029l-7.52-.878a.74.74,0,0,0-.853.747h0A1,1,0,0,0-2334.45,2986.063Z" transform="translate(2335.303 -2984.351)" fill="url(#linear-gradient-7)"/>
        </g>
        <path id="Path_26807" data-name="Path 26807" d="M-2911.583,2835.5c11.62,2.069,19.338,6.281,36.013,6.619,14.445.292,14.552-3.036,31.341-4.088,21.995-1.378,27.728,3.965,50.223,3.5a140.881,140.881,0,0,0,22.628-2.317l11.689,1.1a.518.518,0,0,1,.018,1.03l-86.513,11.181a6.153,6.153,0,0,1-1.541,0l-105.829-13.06C-2935.4,2833.42-2921.491,2833.735-2911.583,2835.5Z" transform="translate(2974.458 -2827.724)" fill="#fff" opacity="0.6" style="mix-blend-mode: soft-light;isolation: isolate"/>
      </g>
      <g id="Group_39738" data-name="Group 39738" transform="translate(9.494 88.166)">
        <path id="Path_26808" data-name="Path 26808" d="M-2131.9,2845.562c-9.36,0-19.307-1.7-19.307-4.836s9.948-4.836,19.307-4.836,19.307,1.7,19.307,4.836S-2122.539,2845.562-2131.9,2845.562Zm0-8.738a61.364,61.364,0,0,0-13.217,1.268c-3.8.882-5.157,1.938-5.157,2.634s1.355,1.753,5.157,2.634a61.381,61.381,0,0,0,13.217,1.267,61.381,61.381,0,0,0,13.217-1.267c3.8-.882,5.156-1.939,5.156-2.634s-1.354-1.752-5.156-2.634A61.364,61.364,0,0,0-2131.9,2836.824Z" transform="translate(2238.94 -2702.521)" fill="#fff"/>
        <ellipse id="Ellipse_3736" data-name="Ellipse 3736" cx="8.564" cy="1.986" rx="8.564" ry="1.986" transform="translate(98.478 136.219)" fill="#fff" opacity="0.6" style="mix-blend-mode: soft-light;isolation: isolate"/>
        <path id="Path_26809" data-name="Path 26809" d="M-3072.054,1337.653l129.071,66.72-73.062,71.485c0,1.755-6.134,3.177-13.7,3.177s-13.7-1.422-13.7-3.177l-93.34-122.717Z" transform="translate(3136.788 -1337.653)" opacity="0.29" fill="url(#linear-gradient-8)" style="mix-blend-mode: multiply;isolation: isolate"/>
      </g>
      <g id="Group_39741" data-name="Group 39741" transform="translate(0)">
        <path id="Path_26810" data-name="Path 26810" d="M-2923.866,1197.525a16.1,16.1,0,0,1-13.727-9.772l-33.453-80.354a14.046,14.046,0,0,1,7.713-18.534c7.375-2.957,18.87.526,21.995,7.92l34.319,81.226a13.734,13.734,0,0,1-8.108,18.667A33.441,33.441,0,0,1-2923.866,1197.525Z" transform="translate(2996.306 -1021.888)" fill="url(#linear-gradient-9)"/>
        <path id="Path_26811" data-name="Path 26811" d="M-2963.333,1088.865c7.374-2.957,18.87.526,21.995,7.92l31.38,74.268c-5.252-1.349-11.469-1.228-17.437-6.461-9.935-8.711-5.047-19.875-12.921-29.819-3.6-4.545-10.26-9.331-23.817-10.77l-6.913-16.6A14.045,14.045,0,0,1-2963.333,1088.865Z" transform="translate(2996.306 -1021.888)" opacity="0.3" fill="url(#linear-gradient-10)" style="mix-blend-mode: multiply;isolation: isolate"/>
        <path id="Path_26812" data-name="Path 26812" d="M-3230.612,918.79a6.273,6.273,0,0,1,.856.061l20.679-.227v53.769l-19.969-.274a6.344,6.344,0,0,1-1.566.2c-7.088,0-12.833-11.983-12.833-26.764S-3237.7,918.79-3230.612,918.79Z" transform="translate(3243.445 -867.759)" fill="#337fc9"/>
        <path id="Path_26813" data-name="Path 26813" d="M-2917.482,430.6c-7.833,17.9-7.833,35.745,0,53.769l153.826,49.457,1.588-150.914Z" transform="translate(2951.85 -379.737)" fill="url(#linear-gradient-11)"/>
        <path id="Path_26814" data-name="Path 26814" d="M-2805.216,1181.047c-14.626-5.541-19.17-26.76-36.151-27.474-13.324-.56-17.338,12.376-30.393,10.981-13.364-1.428-15.608-15.836-30.573-20.915-6.8-2.309-13.923-1.882-20.832.07a65.651,65.651,0,0,0,5.648,32.24l153.826,49.457-9.1-51.24C-2787.958,1183.014-2798.125,1183.733-2805.216,1181.047Z" transform="translate(2951.885 -1071.315)" opacity="0.3" fill="url(#linear-gradient-12)" style="mix-blend-mode: multiply;isolation: isolate"/>
        <ellipse id="Ellipse_3737" data-name="Ellipse 3737" cx="37.418" cy="78.038" rx="37.418" ry="78.038" transform="translate(158.235)" fill="url(#linear-gradient-13)"/>
        <path id="Path_26815" data-name="Path 26815" d="M-1368.516,527.749c4.387,0,8.7-1.841,12.813-5.47,4.188-3.695,7.976-9.038,11.258-15.883,6.9-14.39,10.7-33.58,10.7-54.037s-3.8-39.647-10.7-54.037c-3.282-6.845-7.07-12.189-11.258-15.883-4.115-3.63-8.426-5.47-12.813-5.47s-8.7,1.841-12.813,5.47c-4.188,3.694-7.976,9.038-11.258,15.883a100.312,100.312,0,0,0-6.978,20.31c-2.435,10.349,4.6,21.153,4.6,33.057,0,12.657-6.87,25.5-4.127,36.35a98.4,98.4,0,0,0,6.5,18.357c3.282,6.845,7.07,12.189,11.258,15.883C-1377.214,525.909-1372.9,527.749-1368.516,527.749Z" transform="translate(1564.169 -374.32)" fill="url(#linear-gradient-14)"/>
        <g id="Group_39740" data-name="Group 39740" transform="translate(160.883 2.648)">
          <g id="Group_39739" data-name="Group 39739" clip-path="url(#clip-path)">
            <path id="Path_26816" data-name="Path 26816" d="M-1596.5,871.89c0,19.771-13.092,35.47-29.014,35.07-15.675-.394-28.206-16.291-28.206-35.512s12.531-34.924,28.206-35.076C-1609.592,836.218-1596.5,852.119-1596.5,871.89Z" transform="translate(1634.351 -795.476)" fill="rgba(255,255,255,0.51)"/>
            <path id="Path_26817" data-name="Path 26817" d="M-1324.505,961.851c0,14.682-6.379,26.339-14.137,26.042-7.638-.293-13.743-12.1-13.743-26.37s6.105-25.934,13.743-26.046C-1330.884,935.361-1324.505,947.169-1324.505,961.851Z" transform="translate(1359.84 -885.758)" fill="#337fc9" opacity="0.451" style="mix-blend-mode: multiply;isolation: isolate"/>
          </g>
        </g>
      </g>
    </g>
  </g>
</svg>
