<svg xmlns="http://www.w3.org/2000/svg" width="16.217" height="14.922" viewBox="0 0 16.217 14.922">
  <g id="Group_39669" data-name="Group 39669" transform="translate(1523.8 307.649)">
    <path id="Path_24474" data-name="Path 24474" d="M-1515.094-307.649a1.8,1.8,0,0,0,.32.027,9.217,9.217,0,0,1,3.517.965,7.189,7.189,0,0,1,2.034,1.521,5.928,5.928,0,0,1,1.568,3.2,5.7,5.7,0,0,1-.615,3.664,5.321,5.321,0,0,1-.823,1.119,6.782,6.782,0,0,1-2.623,1.675,9.58,9.58,0,0,1-2.333.531c-.32.034-.641.05-.963.065a9.844,9.844,0,0,1-2.207-.2.165.165,0,0,0-.17.054,10.708,10.708,0,0,1-2.594,2.021c-.154.087-.314.164-.471.246a.262.262,0,0,1-.4-.25c.008-1.031,0-2.062.005-3.093a.2.2,0,0,0-.093-.186,8.381,8.381,0,0,1-1.3-1.127,5.61,5.61,0,0,1-1.435-2.536,4.815,4.815,0,0,1-.108-1.471,5.64,5.64,0,0,1,.657-2.272,6.234,6.234,0,0,1,.9-1.273,7.826,7.826,0,0,1,2.969-2.007,9.5,9.5,0,0,1,2.335-.591c.245-.031.49-.057.737-.065a.373.373,0,0,0,.062-.012Zm-5.254,12.747q0,.7,0,1.41c0,.1,0,.1.089.056a10.526,10.526,0,0,0,2.316-1.742c.118-.117.23-.241.344-.361a.251.251,0,0,1,.247-.081c.142.028.285.052.428.077a9.116,9.116,0,0,0,1.656.164q.426,0,.852-.039a10.148,10.148,0,0,0,1.752-.292,7.233,7.233,0,0,0,2.377-1.08,5.153,5.153,0,0,0,1.6-1.789,5.182,5.182,0,0,0,.522-3.335,5.433,5.433,0,0,0-1.409-2.854,6.751,6.751,0,0,0-1.979-1.473,8.865,8.865,0,0,0-3.63-.9,9.811,9.811,0,0,0-1.239.025,9.4,9.4,0,0,0-1.975.368,7.506,7.506,0,0,0-3.5,2.155,5.585,5.585,0,0,0-.98,1.524,5.12,5.12,0,0,0-.409,1.665,4.325,4.325,0,0,0,.113,1.405,5.11,5.11,0,0,0,1.265,2.205,8.091,8.091,0,0,0,1.385,1.187.369.369,0,0,1,.173.338C-1520.351-295.815-1520.348-295.359-1520.348-294.9Z" fill="#aeb3bd"/>
    <path id="Path_24476" data-name="Path 24476" d="M-1419.333-145.733a.989.989,0,0,1-.991-.986,1,1,0,0,1,.99-.984,1,1,0,0,1,.991.991A.989.989,0,0,1-1419.333-145.733Zm0-.5a.48.48,0,0,0,.488-.475.493.493,0,0,0-.487-.489.492.492,0,0,0-.488.48A.48.48,0,0,0-1419.334-146.236Z" transform="translate(-99.797 -154.26)" fill="#aeb3bd"/>
    <path id="Path_24477" data-name="Path 24477" d="M-1323.414-148.061a.986.986,0,0,1,.989-.988,1,1,0,0,1,.982.99.994.994,0,0,1-1,.988A.992.992,0,0,1-1323.414-148.061Zm.981.481a.476.476,0,0,0,.487-.473.483.483,0,0,0-.489-.492.48.48,0,0,0-.476.478A.466.466,0,0,0-1322.433-147.58Z" transform="translate(-193.263 -152.964)" fill="#aeb3bd"/>
    <path id="Path_24478" data-name="Path 24478" d="M-1224.838-148.054a.992.992,0,0,1-.977.984.993.993,0,0,1-.994-.994,1,1,0,0,1,.989-.983A.985.985,0,0,1-1224.838-148.054Zm-.981.474a.465.465,0,0,0,.478-.486.479.479,0,0,0-.475-.479.486.486,0,0,0-.49.491A.477.477,0,0,0-1225.819-147.58Z" transform="translate(-286.434 -152.964)" fill="#aeb3bd"/>
  </g>
</svg>
