<svg xmlns="http://www.w3.org/2000/svg" xmlns:xlink="http://www.w3.org/1999/xlink" width="171.439" height="168.377" viewBox="0 0 171.439 168.377">
  <defs>
    <clipPath id="clip-path">
      <path id="Path_27937" data-name="Path 27937" d="M2757.246,1360.237c-.76-.478-2.664-2.565-5.28-8.508a145.061,145.061,0,0,1-10.39-43.867c-.328-6.485.437-9.2.9-9.973.76.478,2.664,2.565,5.279,8.508,2.528,5.744,13.1,11.467,15.025,19.605s-4.951,17.995-4.635,24.262C2758.476,1356.75,2757.711,1359.469,2757.246,1360.237Z" transform="translate(-2741.497 -1297.889)" fill="none"/>
    </clipPath>
  </defs>
  <g id="Group_46775" data-name="Group 46775" transform="matrix(0.966, -0.259, 0.259, 0.966, -450.63, 36.596)">
    <path id="Path_27924" data-name="Path 27924" d="M588.022,469.716c40.459,18.092,38.815,49.484,36.655,78.247-.59,7.853-5.98,27.742-19.523,37.97-25.921,19.576-65.312,21.84-93.041-.617-3.571-2.892-27.5-22.917-27.422-54.405.058-23.054,12.957-39.334,14.564-41.314A63.462,63.462,0,0,1,513.8,476.578C531.868,464.831,567.866,460.7,588.022,469.716Z" transform="translate(-49.383 -348.322)" fill="rgba(32,87,166,0.06)"/>
    <g id="Group_46771" data-name="Group 46771" transform="translate(453.413 133.956)">
      <path id="Path_27933" data-name="Path 27933" d="M1314.6,2510.528s18.031,26.641,22.98,31.9c5.744,6.1,16.565-1.216,14.572-6.991s-21.672-26.935-21.672-26.935Z" transform="translate(-1308.478 -2443.067)" fill="#12376c"/>
      <path id="Path_27934" data-name="Path 27934" d="M1508.627,1317.67l63.315-40.255,14.606,64.893-73.847.964Z" transform="translate(-1492.562 -1275.082)" fill="#2057a6"/>
      <ellipse id="Ellipse_4137" data-name="Ellipse 4137" cx="6.965" cy="34.181" rx="6.965" ry="34.181" transform="matrix(0.973, -0.23, 0.23, 0.973, 72.5, 3.21)" fill="#91b3fa"/>
      <path id="Path_27935" data-name="Path 27935" d="M2757.246,1360.237c-.76-.478-2.664-2.565-5.28-8.508a145.061,145.061,0,0,1-10.39-43.867c-.328-6.485.437-9.2.9-9.973.76.478,2.664,2.565,5.279,8.508a145.063,145.063,0,0,1,10.391,43.867C2758.476,1356.75,2757.711,1359.469,2757.246,1360.237Z" transform="translate(-2662.237 -1294.507)" fill="#2057a6"/>
      <g id="Group_46770" data-name="Group 46770" transform="translate(79.259 3.382)">
        <g id="Group_46769" data-name="Group 46769" clip-path="url(#clip-path)">
          <path id="Path_27936" data-name="Path 27936" d="M2698.233,1705.947c1.339,5.651-.621,10.954-6.646,12.381s-12-2-13.334-7.649,2.461-11.39,8.486-12.817S2696.894,1700.3,2698.233,1705.947Z" transform="translate(-2681.24 -1677.078)" fill="#f8f8f8"/>
        </g>
      </g>
      <path id="Path_27938" data-name="Path 27938" d="M1199.81,2042.195a39.713,39.713,0,0,1,13.081-2.423,70.956,70.956,0,0,0,6.912,26.907l-14.19,3.361a4.726,4.726,0,0,1-5.463-2.8c-1.768-4.312-4.416-11.636-4.927-17.9A6.993,6.993,0,0,1,1199.81,2042.195Z" transform="translate(-1195.199 -1998.363)" fill="#12376c"/>
      <path id="Path_27939" data-name="Path 27939" d="M1243.239,2128.172a.989.989,0,0,1-.865-1.316.242.242,0,0,1,.456.163.5.5,0,0,0,.589.656l11.056-2.619a.5.5,0,0,0,.372-.6l-.186-.787a.5.5,0,0,0-.6-.373l-11.138,2.638a.242.242,0,0,1-.112-.472l11.138-2.638a.987.987,0,0,1,1.187.733l.186.786a.986.986,0,0,1-.732,1.187l-11.056,2.619A1,1,0,0,1,1243.239,2128.172Z" transform="translate(-1239.9 -2077.129)" fill="#bdd0fb"/>
      <path id="Path_27940" data-name="Path 27940" d="M1246.633,2228.253a.988.988,0,0,1-.866-1.316.242.242,0,1,1,.457.162.5.5,0,0,0,.589.657l11.056-2.619a.5.5,0,0,0,.372-.6l-.186-.787a.5.5,0,0,0-.6-.373l-11.138,2.638a.242.242,0,1,1-.112-.471l11.138-2.638a.986.986,0,0,1,1.187.732l.186.787a.987.987,0,0,1-.732,1.187l-11.056,2.619A.994.994,0,0,1,1246.633,2228.253Z" transform="translate(-1243.12 -2172.081)" fill="#bdd0fb"/>
      <path id="Path_27941" data-name="Path 27941" d="M1690.266,1435.718a.242.242,0,0,1-.111-.449l48.307-29a.242.242,0,1,1,.249.415l-48.307,29A.24.24,0,0,1,1690.266,1435.718Z" transform="translate(-1664.674 -1397.298)" fill="#bdd0fb"/>
      <path id="Path_27942" data-name="Path 27942" d="M1565.779,2029.349a.242.242,0,0,1-.127-.439l2.428-1.736a.242.242,0,1,1,.282.394l-2.429,1.736A.24.24,0,0,1,1565.779,2029.349Z" transform="translate(-1546.568 -1986.368)" fill="#bdd0fb"/>
      <path id="Path_27943" data-name="Path 27943" d="M1292.366,2335.578a.989.989,0,0,1-.865-1.316.242.242,0,1,1,.457.162.5.5,0,0,0,.588.656l11.056-2.619a.5.5,0,0,0,.373-.6l-.186-.787a.5.5,0,0,0-.6-.373l-11.138,2.638a.242.242,0,0,1-.112-.471l11.138-2.638a.987.987,0,0,1,1.187.732l.186.787a.988.988,0,0,1-.732,1.187l-11.056,2.618A1.014,1.014,0,0,1,1292.366,2335.578Z" transform="translate(-1286.508 -2273.904)" fill="#bdd0fb"/>
      <path id="Path_27944" data-name="Path 27944" d="M1341.975,2454.968a.988.988,0,0,1-.865-1.316.242.242,0,0,1,.456.162.5.5,0,0,0,.589.656l11.056-2.619a.5.5,0,0,0,.373-.6l-.187-.787a.5.5,0,0,0-.6-.373l-11.138,2.638a.242.242,0,1,1-.112-.471l11.138-2.638a.986.986,0,0,1,1.187.732l.186.787a.987.987,0,0,1-.732,1.187l-11.056,2.619A1,1,0,0,1,1341.975,2454.968Z" transform="translate(-1333.575 -2387.174)" fill="#bdd0fb"/>
      <path id="Path_27945" data-name="Path 27945" d="M1541.4,2751.643a7.249,7.249,0,0,1-5.362-2.846l-13.481-17.531a.242.242,0,1,1,.384-.3l13.481,17.531a6.777,6.777,0,0,0,5.551,2.668,6.646,6.646,0,0,0,5.346-2.8q.1-.139.2-.285a.242.242,0,0,1,.4.273q-.1.15-.2.293a7.126,7.126,0,0,1-5.732,3.006C1541.786,2751.658,1541.592,2751.654,1541.4,2751.643Z" transform="translate(-1505.729 -2654.042)" fill="#bdd0fb"/>
      <path id="Path_27946" data-name="Path 27946" d="M1456.008,2644.592a.241.241,0,0,1-.178-.094l-1.5-1.956a.242.242,0,1,1,.384-.3l1.5,1.956a.242.242,0,0,1-.206.389Z" transform="translate(-1440.997 -2569.867)" fill="#bdd0fb"/>
      <path id="Path_27947" data-name="Path 27947" d="M2808.26,1736.149a.243.243,0,0,1-.217-.169c-.857-2.737-2.315-4.584-4.333-5.491-3.487-1.566-7.51.208-7.55.226a.242.242,0,0,1-.2-.442c.173-.078,4.264-1.882,7.948-.227,2.15.966,3.7,2.913,4.6,5.788a.242.242,0,0,1-.159.3A.239.239,0,0,1,2808.26,1736.149Z" transform="translate(-2713.774 -1703.853)" fill="#bdd0fb"/>
    </g>
  </g>
</svg>
