<svg xmlns="http://www.w3.org/2000/svg" width="29.677" height="30.286" viewBox="0 0 29.677 30.286">
  <path id="Path_24479" data-name="Path 24479" d="M-75.4,884.178a1.362,1.362,0,0,0,.753-.172,1.648,1.648,0,0,0,.572-2.465c-.494-.92-1-1.833-1.5-2.753-1.506-2.8-3.005-5.6-4.519-8.393a8.907,8.907,0,0,0-.76-1.317.459.459,0,0,0-.576-.176.489.489,0,0,0-.3.569,1.275,1.275,0,0,0,.148.4q2.8,5.215,5.613,10.426c.358.664.711,1.331,1.067,2a.486.486,0,0,1-.1.634.557.557,0,0,1-.662.176,1.429,1.429,0,0,1-.779-.655c-.172-.335-.377-.653-.568-.978q-1.535-2.607-3.071-5.214c-.582-.987-1.165-1.975-1.756-2.957-.15-.249-.362-.472-.673-.279s-.17.453-.035.69c.288.5.577,1.008.871,1.508q2.051,3.49,4.1,6.981c.234.4.187.478-.257.6q-3.614.964-7.229,1.925c-.509.135-.723.372-.643.717s.386.45.9.316l.084-.023c2.226-.6,4.451-1.206,6.679-1.8a2.576,2.576,0,0,1,1.95.126A1.342,1.342,0,0,0-75.4,884.178Zm-20.652-.948a6.206,6.206,0,0,0,1.642,3.749,2.879,2.879,0,0,0,3.616.789,13.415,13.415,0,0,1,1.6-.576.379.379,0,0,1,.54.273c.117.373.236.746.346,1.121a14.989,14.989,0,0,0,.958,2.748,1.575,1.575,0,0,0,1.913.91,4.256,4.256,0,0,0,1.13-.447.526.526,0,0,0,.248-.709c-.11-.284-.372-.306-.626-.231-.235.07-.456.187-.689.268-.628.219-.869.122-1.136-.485a14.147,14.147,0,0,1-.716-2.1,14.477,14.477,0,0,0-.843-2.513c-.077-.164-.146-.334-.381-.237-.886.363-1.83.569-2.7.984a1.783,1.783,0,0,1-2.334-.364,5.373,5.373,0,0,1-1.4-2.471,1.909,1.909,0,0,1,1.065-2.473,19.013,19.013,0,0,0,2.345-1.731c1.6-1.342,3.207-2.679,4.757-4.08.721-.652,1.445-1.3,2.159-1.96.232-.214.366-.485.111-.762-.241-.26-.525-.183-.789-.009a1.9,1.9,0,0,0-.2.168c-1.491,1.314-2.964,2.648-4.478,3.936a44.317,44.317,0,0,1-4.825,3.784A2.628,2.628,0,0,0-96.05,883.231ZM-82.8,871.972c-.022-.317-.164-.5-.485-.509a.426.426,0,0,0-.5.463.486.486,0,0,0,.5.537C-82.968,872.47-82.832,872.254-82.8,871.972Z" transform="matrix(0.921, 0.391, -0.391, 0.921, 437.065, -762.26)" fill="#b5b5b5"/>
</svg>
