<svg id="Component_12_2" data-name="Component 12 – 2" xmlns="http://www.w3.org/2000/svg" width="20.276" height="26.093" viewBox="0 0 20.276 26.093">
  <path id="Path_81" data-name="Path 81" d="M1157.647,457.134c-.248-.136-.364-.231-.364-.3,0-.019,0-.038,0-.057l-.688-6.615c-.011-3.906-2.146-6.994-5.4-7.95a2.515,2.515,0,1,0-4.537,0c-3.258.955-5.393,4.043-5.4,7.949l-.689,6.633c0,.019,0,.038,0,.057,0,.051-.171.179-.284.263l-.09.067a3.259,3.259,0,0,0-1.4,2.537,2,2,0,0,0,1.995,1.994h4.651a3.534,3.534,0,0,0,6.983,0h4.651a2,2,0,0,0,1.995-2.026A2.936,2.936,0,0,0,1157.647,457.134Zm-8.726,6.47a2.445,2.445,0,0,1-2.378-1.89h4.752A2.442,2.442,0,0,1,1148.921,463.6Zm8.141-2.988h-16.286a.9.9,0,0,1-.9-.928,2.185,2.185,0,0,1,.966-1.631l.082-.061a2.807,2.807,0,0,0,.4-.342h5.917a.549.549,0,0,0,0-1.1h-5.552l.655-6.309c0-.019,0-.038,0-.057,0-3.69,2.139-6.539,5.324-7.089a.549.549,0,0,0,.28-.943,1.417,1.417,0,1,1,1.94,0,.549.549,0,0,0,.28.943c3.184.549,5.324,3.4,5.324,7.089,0,.019,0,.038,0,.057l.689,6.62a1.516,1.516,0,0,0,.94,1.233,1.9,1.9,0,0,1,.834,1.619A.9.9,0,0,1,1157.062,460.616Z" transform="translate(-1138.781 -438.609)" fill="#fff"/>
  <path id="Path_82" data-name="Path 82" d="M1178.843,508.141h-1.5a.549.549,0,0,0,0,1.1h1.5a.549.549,0,0,0,0-1.1Z" transform="translate(-1166.983 -490.194)" fill="#fff"/>
</svg>
