<svg xmlns="http://www.w3.org/2000/svg" width="16.001" height="17.879" viewBox="0 0 16.001 17.879">
  <g id="Group_33035" data-name="Group 33035" transform="translate(0 0)">
    <path id="Path_22073" data-name="Path 22073" d="M270.126,374.455a8,8,0,0,1-3.609-1.015,14.19,14.19,0,0,1-3.827-3.065,16.994,16.994,0,0,1-3.413-5.246,8.467,8.467,0,0,1-.654-3.787,3.888,3.888,0,0,1,3.018-3.634,1.436,1.436,0,0,1,1.937,1.163c.245,1.059.478,2.12.709,3.182a1.409,1.409,0,0,1-.331,1.19,2.661,2.661,0,0,1-.893.733.235.235,0,0,0-.133.339,8.683,8.683,0,0,0,1.89,3.167,12.7,12.7,0,0,0,2.755,2.27c.127.079.191.08.292-.046a2.241,2.241,0,0,1,1.569-.916,1.78,1.78,0,0,1,.742.091c.935.319,1.872.631,2.8.962A1.433,1.433,0,0,1,274,371.3a1.715,1.715,0,0,1-.162.614,5.578,5.578,0,0,1-1.1,1.611,3.51,3.51,0,0,1-2.432.933C270.248,374.458,270.187,374.455,270.126,374.455Z" transform="translate(-258.603 -356.577)" fill="#fff"/>
    <path id="Path_22074" data-name="Path 22074" d="M308.458,360.561c0,.152.006.3,0,.456a.439.439,0,0,1-.44.454.429.429,0,0,1-.415-.478,7.187,7.187,0,0,0-.272-2.322,7.732,7.732,0,0,0-6.251-5.639c-.089-.019-.18-.029-.27-.044a.42.42,0,0,1-.39-.491.424.424,0,0,1,.516-.359,8.242,8.242,0,0,1,2.713.827A8.559,8.559,0,0,1,308.458,360.561Z" transform="translate(-292.46 -352.132)" fill="#fff"/>
    <path id="Path_22075" data-name="Path 22075" d="M306.836,367.576c0,.123.007.26,0,.4a.426.426,0,1,1-.851-.028,5.946,5.946,0,0,0-5.055-6.021c-.332-.06-.494-.24-.451-.508s.267-.388.594-.335a6.756,6.756,0,0,1,5.73,5.981C306.823,367.227,306.825,367.395,306.836,367.576Z" transform="translate(-292.508 -359.368)" fill="#fff"/>
    <path id="Path_22076" data-name="Path 22076" d="M303.9,372.673a3.658,3.658,0,0,1,1.578.638,3.852,3.852,0,0,1,1.666,3.068.437.437,0,0,1-.406.506c-.269.013-.433-.154-.451-.457a3.011,3.011,0,0,0-2.451-2.9.447.447,0,0,1-.4-.469A.439.439,0,0,1,303.9,372.673Z" transform="translate(-294.9 -368.765)" fill="#fff"/>
  </g>
</svg>
