<svg xmlns="http://www.w3.org/2000/svg" xmlns:xlink="http://www.w3.org/1999/xlink" width="30" height="30" viewBox="0 0 30 30">
  <defs>
    <linearGradient id="linear-gradient" x1="0.5" x2="0.5" y2="1" gradientUnits="objectBoundingBox">
      <stop offset="0" stop-color="#337fc9"/>
      <stop offset="1" stop-color="#2057a6"/>
    </linearGradient>
  </defs>
  <g id="Group_11164" data-name="Group 11164" transform="translate(-428 -1800)">
    <circle id="Ellipse_2412" data-name="Ellipse 2412" cx="15" cy="15" r="15" transform="translate(428 1800)" fill="url(#linear-gradient)"/>
    <g id="Group_7057" data-name="Group 7057" transform="translate(437.647 1810.388)" opacity="0.738">
      <path id="Path_10478" data-name="Path 10478" d="M177.6,165.575l3.508-3.508a1.033,1.033,0,1,1,1.462,1.461l-2.777,2.777,2.777,2.777a1.033,1.033,0,0,1-1.462,1.461l-3.508-3.508A1.034,1.034,0,0,1,177.6,165.575Z" transform="translate(-172.194 -161.765)" fill="#fff"/>
      <path id="Path_10479" data-name="Path 10479" d="M198.533,165.575l3.508-3.508a1.033,1.033,0,1,1,1.462,1.461l-2.777,2.777,2.777,2.777a1.033,1.033,0,0,1-1.462,1.461l-3.508-3.508A1.033,1.033,0,0,1,198.533,165.575Z" transform="translate(-198.231 -161.765)" fill="rgba(255,255,255,0.96)"/>
    </g>
  </g>
</svg>
