<svg xmlns="http://www.w3.org/2000/svg" width="15.125" height="14.198" viewBox="0 0 15.125 14.198">
  <path id="Path_22771" data-name="Path 22771" d="M190,349.4a6.752,6.752,0,0,1,.944-2.5,7.336,7.336,0,0,1,4.942-3.121,8.327,8.327,0,0,1,6.529,1.322,5.769,5.769,0,0,1-.028,9.8,8.27,8.27,0,0,1-6.27,1.335,1.537,1.537,0,0,0-.857.073c-1.134.451-2.276.881-3.414,1.322-.12.046-.258.061-.344.176a1.008,1.008,0,0,1,.057-.474c.228-.787.428-1.583.677-2.363a.507.507,0,0,0-.193-.634,5.609,5.609,0,0,1-1.734-2.6c-.134-.415-.208-.849-.309-1.275Zm2.836,6.84c.826-.309,1.579-.589,2.332-.872a1.671,1.671,0,0,1,.906-.076,7.513,7.513,0,0,0,5.916-1.255,4.785,4.785,0,0,0,.524-7.653,7.646,7.646,0,0,0-9.1-.625c-3.585,2.408-2.851,6.358-.521,8.092a.88.88,0,0,1,.323,1.024C193.086,355.292,192.977,355.719,192.836,356.237Z" transform="translate(-190 -343.608)" fill="#7c8596"/>
</svg>
