<svg xmlns="http://www.w3.org/2000/svg" width="34.883" height="33.288" viewBox="0 0 34.883 33.288">
  <g id="Group_6628" data-name="Group 6628" transform="translate(-0.447)">
    <path id="Path_9052" data-name="Path 9052" d="M-2439.408,3680l4.5,9.123a1.146,1.146,0,0,0,.863.627l10.068,1.463a1.145,1.145,0,0,1,.635,1.953l-7.285,7.1a1.144,1.144,0,0,0-.329,1.013l1.72,10.027a1.146,1.146,0,0,1-1.662,1.208l-9-4.734a1.146,1.146,0,0,0-1.066,0l-9.005,4.734a1.145,1.145,0,0,1-1.662-1.208l1.72-10.027a1.145,1.145,0,0,0-.33-1.013l-7.285-7.1a1.145,1.145,0,0,1,.635-1.953l10.068-1.463a1.144,1.144,0,0,0,.862-.627l4.5-9.123A1.146,1.146,0,0,1-2439.408,3680Z" transform="translate(2458.324 -3679.365)" fill="#2057a6"/>
    <g id="Group_6363" data-name="Group 6363" transform="translate(0.447 2.58)" opacity="0.3" style="mix-blend-mode: multiply;isolation: isolate">
      <path id="Path_9053" data-name="Path 9053" d="M-2433.343,3779.079c-3.455-3.286-7.348-3.1-8.919-6.9-1.761-4.255,1.989-7.233,1.346-12.453a10.929,10.929,0,0,0-1.5-4.278l-3.544,7.182a1.146,1.146,0,0,1-.862.626l-10.068,1.463a1.145,1.145,0,0,0-.635,1.953l7.285,7.1a1.147,1.147,0,0,1,.329,1.014l-1.72,10.027a1.145,1.145,0,0,0,1.662,1.207l9-4.734a1.143,1.143,0,0,1,1.066,0l9,4.734a1.138,1.138,0,0,0,1.357-.219A14.063,14.063,0,0,0-2433.343,3779.079Z" transform="translate(2457.877 -3755.447)" fill="#888"/>
    </g>
  </g>
</svg>
