<svg xmlns="http://www.w3.org/2000/svg" width="33.91" height="37.846" viewBox="0 0 33.91 37.846">
  <g id="Group_6630" data-name="Group 6630" transform="translate(-136.065 -213.814)">
    <path id="Path_9729" data-name="Path 9729" d="M351.642,466.05a15.74,15.74,0,0,1-3.77-3.182,15.938,15.938,0,0,1-3.65-8.6,26,26,0,0,1-.16-2.693c0-.239.047-.373.3-.422a22.057,22.057,0,0,0,5.549-1.981,4.551,4.551,0,0,1,4.239.066,21.967,21.967,0,0,0,5.684,1.989v1.918a.554.554,0,0,0-.075.333,16.03,16.03,0,0,1-.6,3.374,15.612,15.612,0,0,1-6.91,9.2Zm6.618-13.243c.03-.159.005-.328-.315-.406a20.091,20.091,0,0,1-4.326-1.693,3.439,3.439,0,0,0-3.339.009,18.537,18.537,0,0,1-4.322,1.7c-.255.061-.315.164-.3.415a17.606,17.606,0,0,0,.5,3.355,13.315,13.315,0,0,0,5.3,7.833.693.693,0,0,0,.975-.021A14.762,14.762,0,0,0,358.26,452.808Z" transform="translate(-189.862 -214.39)" fill="#2057a6"/>
    <path id="Path_9730" data-name="Path 9730" d="M164.447,233.164a14.186,14.186,0,0,0-1.407-.348c-.234-.032-.146-.254-.147-.4-.006-1.569,0-3.138,0-4.708,0-.8-.02-1.6.009-2.4.014-.378-.122-.453-.471-.451-2.833.013-5.667,0-8.5.018-.432,0-.521-.125-.518-.535.018-2.833,0-5.667.018-8.5,0-.357-.085-.46-.452-.459q-7.432.019-14.864,0c-.353,0-.465.082-.465.452q.015,16.106,0,32.213c0,.4.13.469.494.468,5.8-.011,11.595,0,17.392-.016a.845.845,0,0,1,.8.384c.279.4.615.757.934,1.143a.724.724,0,0,1-.442.053q-10.113,0-20.226.012c-.421,0-.525-.1-.525-.524q.019-17.61,0-35.221c0-.456.129-.54.555-.539q8.718.022,17.436,0a1.02,1.02,0,0,1,.8.321q4.642,4.667,9.305,9.313a.828.828,0,0,1,.312.63c-.012,2.92-.007,5.841-.008,8.762C164.465,232.941,164.454,233.038,164.447,233.164Zm-2.861-9.894-6.593-6.595v.289c0,1.961.011,3.921-.009,5.881,0,.381.128.45.473.448,1.931-.015,3.863-.007,5.794-.008C161.378,223.285,161.506,223.274,161.586,223.27Z" fill="#2057a6"/>
    <path id="Path_9731" data-name="Path 9731" d="M216.19,413.9c-2.47,0-4.939-.007-7.408.008-.352,0-.456-.1-.427-.439.032-.36-.113-.838.07-1.055.214-.255.709-.086,1.08-.086,4.706-.006,9.413,0,14.12-.014.41,0,.5.118.5.506-.022,1.079-.006,1.08-1.088,1.08Z" transform="translate(-65.964 -181.156)" fill="#2057a6"/>
    <path id="Path_9732" data-name="Path 9732" d="M213.963,522.806c-1.655,0-3.311-.007-4.966.006-.31,0-.429-.065-.429-.406,0-1.18-.012-1.18,1.174-1.18,2.948,0,5.9.008,8.843-.01.369,0,.536.1.541.465a1.924,1.924,0,0,0,.041.3c.144.824.145.824-.717.824Z" transform="translate(-66.182 -280.6)" fill="#2057a6"/>
    <path id="Path_9733" data-name="Path 9733" d="M213.716,468.5c-1.582,0-3.164-.008-4.746.006-.3,0-.392-.082-.393-.388,0-1.192-.015-1.192,1.155-1.192,2.888,0,5.777.006,8.665-.008.349,0,.466.1.426.438-.044.369.161.864-.092,1.078-.215.182-.691.064-1.052.065C216.358,468.505,215.037,468.5,213.716,468.5Z" transform="translate(-66.189 -231.039)" fill="#2057a6"/>
  </g>
</svg>
