<svg xmlns="http://www.w3.org/2000/svg" width="8.376" height="10.442" viewBox="0 0 8.376 10.442">
  <g id="Group_331" data-name="Group 331" transform="translate(0)">
    <path id="Path_361" data-name="Path 361" d="M51.39,0a4.191,4.191,0,0,1,4.186,4.186,4.12,4.12,0,0,1-.074.786c0,.015-.011.061-.028.14a4.123,4.123,0,0,1-.28.825,11.734,11.734,0,0,1-3.619,4.44.3.3,0,0,1-.372,0,11.756,11.756,0,0,1-3.619-4.44,4.076,4.076,0,0,1-.28-.825c-.018-.079-.026-.125-.028-.14a4.3,4.3,0,0,1-.074-.786A4.2,4.2,0,0,1,51.39,0ZM47.861,4.869s0,.009,0,.013.009.044.02.094v0a3.475,3.475,0,0,0,.243.714s0,.007,0,.009a10.95,10.95,0,0,0,3.26,4.063A10.951,10.951,0,0,0,54.65,5.7s0-.007,0-.009A3.707,3.707,0,0,0,54.9,4.98v0c.013-.05.018-.083.02-.094s0-.009,0-.015a3.594,3.594,0,1,0-7.058,0Z" transform="translate(-47.2)" fill="#818181"/>
    <path id="Path_362" data-name="Path 362" d="M119.658,71.9A2.658,2.658,0,1,1,117,74.558,2.662,2.662,0,0,1,119.658,71.9Zm0,4.724a2.067,2.067,0,1,0-2.067-2.067A2.069,2.069,0,0,0,119.658,76.624Z" transform="translate(-115.468 -70.326)" fill="#818181"/>
  </g>
</svg>
