<svg xmlns="http://www.w3.org/2000/svg" width="29.131" height="22.182" viewBox="0 0 29.131 22.182">
  <g id="Group_39510" data-name="Group 39510" transform="translate(1523.8 307.649)">
    <path id="Path_24474" data-name="Path 24474" d="M-1511.507-307.649a2.549,2.549,0,0,0,.451.037,13.017,13.017,0,0,1,4.967,1.362,10.152,10.152,0,0,1,2.872,2.148,8.371,8.371,0,0,1,2.214,4.515,8.053,8.053,0,0,1-.869,5.174,7.508,7.508,0,0,1-1.161,1.581,9.578,9.578,0,0,1-3.7,2.365,13.528,13.528,0,0,1-3.295.75c-.452.048-.906.07-1.36.092a13.9,13.9,0,0,1-3.116-.287.233.233,0,0,0-.241.076,15.121,15.121,0,0,1-3.662,2.855c-.217.123-.443.232-.665.348a.37.37,0,0,1-.565-.352c.011-1.456,0-2.911.007-4.367a.283.283,0,0,0-.132-.263,11.839,11.839,0,0,1-1.836-1.591,7.923,7.923,0,0,1-2.026-3.581,6.8,6.8,0,0,1-.152-2.077,7.964,7.964,0,0,1,.928-3.208,8.8,8.8,0,0,1,1.269-1.8,11.051,11.051,0,0,1,4.192-2.834,13.411,13.411,0,0,1,3.3-.835c.346-.043.692-.081,1.041-.092a.537.537,0,0,0,.088-.017Zm-7.419,18q0,1,0,1.99c0,.143,0,.146.125.079a14.863,14.863,0,0,0,3.27-2.461c.166-.166.324-.34.486-.51a.355.355,0,0,1,.349-.115c.2.04.4.073.6.109a12.875,12.875,0,0,0,2.338.232q.6,0,1.2-.055a14.329,14.329,0,0,0,2.474-.413,10.212,10.212,0,0,0,3.357-1.526,7.276,7.276,0,0,0,2.264-2.526,7.317,7.317,0,0,0,.737-4.71,7.672,7.672,0,0,0-1.99-4.03,9.534,9.534,0,0,0-2.8-2.079,12.52,12.52,0,0,0-5.126-1.273,13.847,13.847,0,0,0-1.75.035,13.269,13.269,0,0,0-2.788.52,10.6,10.6,0,0,0-4.943,3.043,7.886,7.886,0,0,0-1.384,2.152,7.232,7.232,0,0,0-.577,2.351,6.107,6.107,0,0,0,.159,1.985,7.216,7.216,0,0,0,1.786,3.114,11.418,11.418,0,0,0,1.956,1.676.521.521,0,0,1,.244.478C-1518.929-290.938-1518.926-290.293-1518.926-289.649Z" transform="translate(0)" fill="#b5b5b5"/>
    <path id="Path_24475" data-name="Path 24475" d="M-1179.766-109.2c-.047.234-.075.47-.143.7a5.329,5.329,0,0,1-1.15,1.993,8.285,8.285,0,0,1-1.387,1.24.22.22,0,0,0-.091.2c0,.906-.008,1.812.006,2.718a.381.381,0,0,1-.529.4,6.035,6.035,0,0,1-2.182-1.163,5.1,5.1,0,0,1-.47-.429.165.165,0,0,0-.183-.048q-.406.109-.816.207a4.5,4.5,0,0,1-1.268.064,8.1,8.1,0,0,1-1.662-.239,7.1,7.1,0,0,1-2.459-1.2.35.35,0,0,1-.084-.5.349.349,0,0,1,.487-.074,9.928,9.928,0,0,0,.9.562,6.188,6.188,0,0,0,1.989.654c.307.048.617.069.927.092a4.613,4.613,0,0,0,1.682-.215c.141-.042.287-.07.43-.107a.385.385,0,0,1,.409.132,5.472,5.472,0,0,0,1.937,1.383l.011,0c.171.07.172.069.172-.118,0-.773,0-1.547,0-2.32a.542.542,0,0,1,.257-.494,7.248,7.248,0,0,0,1.77-1.686,3.561,3.561,0,0,0,.737-1.822,3.513,3.513,0,0,0-.895-2.772,5.69,5.69,0,0,0-2.03-1.329c-.311-.132-.63-.24-.95-.349a.353.353,0,0,1-.187-.565.36.36,0,0,1,.4-.109,11.284,11.284,0,0,1,1.192.448,6.824,6.824,0,0,1,1.736,1.071,4.071,4.071,0,0,1,1.411,2.586c.013.093.028.186.042.28Z" transform="translate(-314.902 -183.547)" fill="#b5b5b5"/>
    <path id="Path_24476" data-name="Path 24476" d="M-1418.925-144.921a1.4,1.4,0,0,1-1.4-1.393,1.412,1.412,0,0,1,1.4-1.39,1.41,1.41,0,0,1,1.4,1.4A1.4,1.4,0,0,1-1418.925-144.921Zm0-.71a.678.678,0,0,0,.689-.671.7.7,0,0,0-.687-.691.7.7,0,0,0-.689.677A.678.678,0,0,0-1418.926-145.631Z" transform="translate(-98.281 -151.917)" fill="#b5b5b5"/>
    <path id="Path_24477" data-name="Path 24477" d="M-1323.414-147.654a1.393,1.393,0,0,1,1.4-1.395,1.405,1.405,0,0,1,1.387,1.4,1.4,1.4,0,0,1-1.412,1.4A1.4,1.4,0,0,1-1323.414-147.654Zm1.385.679a.673.673,0,0,0,.688-.668.682.682,0,0,0-.69-.695.678.678,0,0,0-.672.675A.658.658,0,0,0-1322.029-146.975Z" transform="translate(-190.327 -150.64)" fill="#b5b5b5"/>
    <path id="Path_24478" data-name="Path 24478" d="M-1224.025-147.644a1.4,1.4,0,0,1-1.38,1.389,1.4,1.4,0,0,1-1.4-1.4,1.407,1.407,0,0,1,1.4-1.389A1.391,1.391,0,0,1-1224.025-147.644Zm-1.385.669a.657.657,0,0,0,.675-.686.677.677,0,0,0-.67-.676.686.686,0,0,0-.692.694A.674.674,0,0,0-1225.411-146.975Z" transform="translate(-282.083 -150.64)" fill="#b5b5b5"/>
  </g>
</svg>
