<svg id="Group_39525" data-name="Group 39525" xmlns="http://www.w3.org/2000/svg" width="7.395" height="8.596" viewBox="0 0 7.395 8.596">
  <path id="Path_9069" data-name="Path 9069" d="M-173.448,324.274a2.827,2.827,0,0,1-2.83,2.816,2.829,2.829,0,0,1-2.8-2.845,2.807,2.807,0,0,1,2.818-2.794A2.805,2.805,0,0,1-173.448,324.274Zm-4.975-.011a2.17,2.17,0,0,0,2.158,2.167,2.171,2.171,0,0,0,2.162-2.163,2.181,2.181,0,0,0-2.158-2.172A2.18,2.18,0,0,0-178.424,324.263Z" transform="translate(179.951 -321.45)" fill="#2d72be"/>
  <path id="Path_9070" data-name="Path 9070" d="M-193.831,461.813a5.373,5.373,0,0,1,3.595,1.411c.121.109.133.17.01.288-.319.307-.312.313-.658.031a4.632,4.632,0,0,0-6.072.131c-.139.125-.214.146-.352,0-.3-.324-.314-.32.035-.608A5.373,5.373,0,0,1-193.831,461.813Z" transform="translate(197.535 -455.18)" fill="#2d72be"/>
</svg>
