<svg xmlns="http://www.w3.org/2000/svg" xmlns:xlink="http://www.w3.org/1999/xlink" width="272.973" height="272.973" viewBox="0 0 272.973 272.973">
  <defs>
    <linearGradient id="linear-gradient" x1="0.5" x2="0.5" y2="1" gradientUnits="objectBoundingBox">
      <stop offset="0" stop-color="#317bc5"/>
      <stop offset="1" stop-color="#2460ae"/>
    </linearGradient>
  </defs>
  <g id="Group_46793" data-name="Group 46793" transform="translate(-74.209 -410.326)">
    <ellipse id="Ellipse_3719" data-name="Ellipse 3719" cx="96.261" cy="96.761" rx="96.261" ry="96.761" transform="translate(74.209 546.459) rotate(-45)" fill="rgba(32,87,166,0.03)"/>
    <path id="Path_24262" data-name="Path 24262" d="M670.63,478.8a69.82,69.82,0,1,1,23.527-135.576,4.54,4.54,0,0,1-3.059,8.549A60.671,60.671,0,1,0,728.379,390.1a4.54,4.54,0,0,1,8.631-2.82,69.869,69.869,0,0,1-66.38,91.52Z" transform="translate(-460.041 142.822)" fill="url(#linear-gradient)"/>
    <path id="Path_24263" data-name="Path 24263" d="M881.158,375.743a282.652,282.652,0,0,0-53.147-58.432,78.332,78.332,0,0,1,32.758,6.1,77.071,77.071,0,0,1,16.817,9.811,158.953,158.953,0,0,1,27.157-38.583c19.77-20.634,44.935-35.441,47.833-32.188,2.552,2.865-13.646,18.083-33.637,46.629A402.385,402.385,0,0,0,881.158,375.743Z" transform="translate(-657.841 210)" fill="url(#linear-gradient)"/>
  </g>
</svg>
