<svg id="Group_39511" data-name="Group 39511" xmlns="http://www.w3.org/2000/svg" width="19.574" height="19.577" viewBox="0 0 19.574 19.577">
  <path id="Path_22880" data-name="Path 22880" d="M129.526,205.819a.494.494,0,0,1-.137.289c-.4.534-.8,1.071-1.209,1.6a.269.269,0,0,0-.03.353,6.351,6.351,0,0,1,.642,1.519.27.27,0,0,0,.267.234c.656.073,1.309.166,1.963.252.338.045.415.131.417.469q0,1.1.006,2.207c0,.333-.068.415-.39.464-.66.1-1.32.21-1.982.3a.275.275,0,0,0-.265.238,6.489,6.489,0,0,1-.624,1.5.254.254,0,0,0,.024.332c.408.519.8,1.047,1.2,1.572.211.278.205.383-.033.624q-.785.793-1.572,1.584c-.223.223-.335.232-.587.046-.539-.4-1.079-.79-1.611-1.194a.27.27,0,0,0-.352-.034,6.1,6.1,0,0,1-1.5.623.287.287,0,0,0-.248.286c-.076.664-.168,1.326-.255,1.988-.036.275-.135.367-.408.368q-1.153.007-2.307.006c-.3,0-.38-.085-.429-.4-.1-.661-.208-1.32-.3-1.982a.257.257,0,0,0-.228-.244,6.328,6.328,0,0,1-1.478-.61.286.286,0,0,0-.376.023c-.52.406-1.051.8-1.579,1.2-.263.2-.369.189-.6-.043q-.776-.767-1.549-1.536c-.271-.27-.279-.361-.059-.664.383-.527.764-1.056,1.154-1.578a.276.276,0,0,0,.031-.355,6.257,6.257,0,0,1-.64-1.546.25.25,0,0,0-.255-.212c-.639-.07-1.277-.155-1.916-.229-.359-.042-.439-.12-.44-.47q0-1.1-.006-2.207c0-.339.071-.419.413-.471.661-.1,1.321-.2,1.982-.3.121-.017.191-.051.226-.182a6.563,6.563,0,0,1,.679-1.611.215.215,0,0,0-.036-.285q-.623-.786-1.237-1.579c-.206-.265-.2-.375.026-.6q.794-.8,1.591-1.6c.222-.222.333-.228.586-.036.54.408,1.081.815,1.615,1.231a.254.254,0,0,0,.332.027,6.524,6.524,0,0,1,1.545-.643.255.255,0,0,0,.214-.257c.078-.68.168-1.36.256-2.039.036-.276.132-.365.408-.366q1.141-.005,2.282,0c.321,0,.405.078.452.405.1.67.2,1.338.287,2.009a.257.257,0,0,0,.219.251,6.258,6.258,0,0,1,1.5.617.252.252,0,0,0,.329-.023c.527-.411,1.061-.814,1.593-1.218.292-.222.389-.216.642.036l1.583,1.574A.427.427,0,0,1,129.526,205.819ZM121.667,220.8v0c.251,0,.5-.008.752,0,.164.007.231-.04.251-.216.073-.639.169-1.275.248-1.914a.422.422,0,0,1,.366-.407,6.209,6.209,0,0,0,1.889-.783.439.439,0,0,1,.568.028c.512.39,1.04.758,1.55,1.15.147.113.225.1.346-.031.338-.359.688-.707,1.042-1.051.112-.109.125-.181.023-.31-.4-.505-.778-1.025-1.177-1.531a.434.434,0,0,1-.039-.568,6.127,6.127,0,0,0,.783-1.89.427.427,0,0,1,.408-.365c.645-.092,1.287-.2,1.932-.294.147-.021.2-.072.2-.22q-.014-.765-.007-1.53c0-.145-.041-.2-.193-.221-.639-.075-1.275-.172-1.914-.243a.446.446,0,0,1-.441-.391,6.017,6.017,0,0,0-.794-1.884.433.433,0,0,1,.026-.568c.4-.515.782-1.043,1.181-1.559a.189.189,0,0,0-.023-.308q-.544-.52-1.066-1.062c-.111-.115-.184-.119-.31-.02-.52.407-1.052.8-1.572,1.2a.426.426,0,0,1-.547.029,6.286,6.286,0,0,0-1.894-.771.406.406,0,0,1-.347-.4c-.085-.654-.194-1.306-.28-1.96-.021-.156-.068-.213-.23-.21-.51.01-1.02.01-1.53,0-.147,0-.2.043-.218.194-.076.656-.169,1.309-.248,1.964a.409.409,0,0,1-.341.4,6.344,6.344,0,0,0-1.958.811.405.405,0,0,1-.524-.026c-.521-.405-1.054-.8-1.574-1.2-.127-.1-.2-.094-.308.021q-.511.535-1.042,1.05c-.12.116-.132.192-.023.327.405.5.792,1.015,1.194,1.517a.418.418,0,0,1,.035.547,6.373,6.373,0,0,0-.818,1.956.4.4,0,0,1-.378.333c-.637.089-1.271.2-1.909.283-.2.025-.244.1-.239.285q.018.714,0,1.429c0,.179.045.243.232.263.631.065,1.26.161,1.891.229a.411.411,0,0,1,.4.369,6.052,6.052,0,0,0,.783,1.889.451.451,0,0,1-.021.589c-.391.511-.761,1.038-1.146,1.553-.089.119-.108.193.015.309.371.35.732.711,1.087,1.077.1.108.174.108.29.018.515-.4,1.042-.783,1.557-1.184a.422.422,0,0,1,.546-.033,6.134,6.134,0,0,0,1.891.779.423.423,0,0,1,.366.406c.088.629.2,1.254.282,1.883.025.187.079.263.276.248C121.2,220.787,121.433,220.8,121.667,220.8Z" transform="translate(-111.871 -201.871)" fill="#b5b5b5"/>
  <path id="Path_22881" data-name="Path 22881" d="M235.975,322.788a3.913,3.913,0,1,1-3.88-3.928A3.913,3.913,0,0,1,235.975,322.788Zm-.643-.008a3.269,3.269,0,1,0-3.278,3.261A3.262,3.262,0,0,0,235.332,322.78Z" transform="translate(-222.315 -312.991)" fill="#b5b5b5"/>
</svg>
