<svg xmlns="http://www.w3.org/2000/svg" width="21.578" height="21.541" viewBox="0 0 21.578 21.541">
  <path id="Path_26795" data-name="Path 26795" d="M203.4,277.389a10.448,10.448,0,0,1-5.295,9.078,9.674,9.674,0,0,1-3.506,1.168,10.034,10.034,0,0,1-6.8-1.4.734.734,0,0,0-.681-.089c-1.036.348-2.08.673-3.123,1-.1.03-.209.128-.3.032s0-.209.028-.3c.324-.973.647-1.947.989-2.913a.793.793,0,0,0-.1-.788,10.257,10.257,0,1,1,18.7-7.1A11.909,11.909,0,0,1,203.4,277.389ZM189.316,271.9a1.354,1.354,0,0,0-1.214.549,3.369,3.369,0,0,0-.528,3.96,11.94,11.94,0,0,0,7.946,6.733,3.467,3.467,0,0,0,3.055-.614,2.289,2.289,0,0,0,.856-1.96.439.439,0,0,0-.257-.428c-.813-.395-1.627-.789-2.446-1.172a.544.544,0,0,0-.736.214c-.272.369-.576.714-.866,1.069a.427.427,0,0,1-.531.166,8.139,8.139,0,0,1-4.141-3.531.467.467,0,0,1,.077-.622,8.462,8.462,0,0,0,.569-.684.962.962,0,0,0,.107-1.092c-.3-.619-.535-1.267-.8-1.9C190.155,271.977,190.047,271.9,189.316,271.9Z" transform="translate(-182.321 -266.701)" fill="none" stroke="#66c868" stroke-width="1"/>
</svg>
